<svg id="Layer_1" enable-background="new 0 0 512 512" height="512" viewBox="0 0 512 512" width="512" xmlns="http://www.w3.org/2000/svg"><g><g><path d="m352.792 482.61v-15h-54.471v-170.93h27.66v-15h-27.66v-46.98l61.975-.001v-76.978h-324.888v324.89zm-240.407-123.955h46.978v46.978h-46.978zm0-61.978h46.978v46.978h-46.978zm0-61.978h46.978v46.978h-46.978zm170.934 46.978h-46.978v-46.978h46.978zm0 61.978h-46.978v-46.978h46.978zm-108.956-46.978h46.979v46.978h-46.979zm46.978-15h-46.979v-46.978h46.979zm-46.978 76.978h46.979v46.978h-46.979zm61.978 0h46.978v46.978h-46.978zm61.978-185.934h46.978v46.978h-46.978zm-61.978 0h46.978v46.978h-46.978zm-61.978 0h46.979v46.978h-46.979zm-61.978 0h46.978v46.978h-46.978zm-61.977 0h46.978v46.978h-46.978zm0 61.978h46.978v46.978h-46.978zm0 61.978h46.978v46.978h-46.978zm0 61.978h46.978v46.978h-46.978zm46.977 108.956h-46.977v-46.978h46.978v46.978zm61.978 0h-46.978v-46.978h46.978zm61.978 0h-46.979v-46.978h46.979zm61.978 0h-46.978v-46.978h46.978z"/><path d="m102.147 50.25-18.274-16.25h-42.58l-.001 98.333 42.581-.003 18.274-16.25v-23.872l-10.169-9.043 10.169-9.043zm-23.98-1.25 8.979 7.985v10.403l-8.979 7.985h-21.875v-26.373zm8.98 60.346-8.979 7.985h-21.876v-26.373h21.875l8.979 7.985v10.403z"/><path d="m280.248 70.268v-36.16h-57.637v98.267h57.637v-45.372h-29.467v15h14.467v15.372h-27.637v-68.267h27.637v21.16z"/><path d="m354.165 34.108h-57.637v98.183h57.637zm-15 83.184h-27.637v-68.184h27.637z"/><path d="m119.006 34h15v98.333h-15z"/><path d="m165.961 69.627 21.125 62.706h19.367v-98.333h-15v64.31l-21.665-64.31h-18.827v98.37h15z"/><path d="m465.641 271.127 45.977-106.749-8.016-3.452 6.901-16.025.478-21.013-60.097-25.879-14.938 14.784-6.902 16.028-8.023-3.455-101.733 236.256 6.157 2.652-11.373 26.411 10.215 4.399-20.064 46.591 65.621 6.838 12.282-28.521 10.216 4.399 11.373-26.409 6.159 2.653 49.387-114.668-13.777-5.934-43.454 100.892-63.033-27.146 89.867-208.702 63.042 27.149-40.042 92.968zm-105.212 161.323-34.361-3.58 11.975-27.805 30.286 13.042zm24.069-27.769-50.717-21.84 5.44-12.633 50.717 21.841zm64.071-283.278 5.675-5.616 41.511 17.876-.181 7.983-5.749 13.348-47.005-20.241z"/><path d="m15.382 15h364.94v130.59h15v-145.59h-394.94v96.64h15z"/><path d="m380.322 497h-364.94v-385.36h-15v400.36h394.94v-48.35h-15z"/></g><g><path d="m411.938 290.121-13.777-5.933 5.758-13.371 13.777 5.933zm17.624-40.924-13.777-5.933 5.933-13.777 13.777 5.933zm17.799-41.331-13.777-5.933 5.933-13.777 13.777 5.933z"/></g><g><path d="m66.802 188.71h15v15h-15z"/></g><g><path d="m190.757 250.688h15v15h-15z"/></g><g><path d="m128.78 312.666h15v15h-15z"/></g><g><path d="m253.361 374.1h15v15h-15z"/></g><g><path d="m67.427 437.077h15v15h-15z"/></g></g></svg>