<?xml version="1.0" standalone="no"?>
<!DOCTYPE svg PUBLIC "-//W3C//DTD SVG 20010904//EN"
 "http://www.w3.org/TR/2001/REC-SVG-20010904/DTD/svg10.dtd">
<svg version="1.0" xmlns="http://www.w3.org/2000/svg"
 width="100.000000pt" height="100.000000pt" viewBox="0 -60 300.000000 10.000000"
 preserveAspectRatio="xMidYMid meet">

<g transform="translate(0.000000,60.000000) scale(0.100000,-0.100000)"
 stroke="none">
<path d="M0 1380 l0 -300 155 0 155 0 0 -220 0 -220 1230 0 c1223 0 1230 0
1230 20 0 20 -7 20 -1210 20 l-1210 0 0 200 0 200 125 0 125 0 0 300 0 300
-300 0 -300 0 0 -300z m510 0 l0 -210 -80 0 -80 0 0 115 0 115 -130 0 -130 0
0 95 0 95 210 0 210 0 0 -210z m-202 -112 l-3 -93 -107 -3 -108 -3 0 96 0 95
110 0 111 0 -3 -92z"/>
<path d="M650 1310 l0 -90 70 0 70 0 0 -215 0 -215 90 0 90 0 0 215 0 215 70
0 70 0 0 90 0 90 -230 0 -230 0 0 -90z"/>
<path d="M1620 1310 l0 -90 70 0 70 0 0 -215 0 -215 95 0 95 0 0 215 0 215 65
0 65 0 0 90 0 90 -230 0 -230 0 0 -90z"/>
<path d="M1295 1239 c-43 -12 -112 -73 -135 -120 -31 -59 -27 -158 6 -220 59
-108 187 -148 302 -94 l53 25 -48 59 c-42 53 -49 58 -64 45 -44 -40 -103 8
-103 86 0 38 5 55 24 75 27 28 61 32 84 9 25 -25 19 -33 -26 -36 -42 -3 -43
-4 -46 -40 l-3 -38 130 0 131 0 0 43 c-1 57 -28 114 -78 159 -59 53 -145 71
-227 47z"/>
<path d="M2269 1236 c-115 -41 -177 -159 -148 -279 9 -38 24 -63 63 -103 76
-78 165 -95 261 -50 88 41 135 114 135 213 0 161 -159 273 -311 219z m119
-172 c48 -33 17 -114 -44 -114 -23 0 -64 42 -64 65 0 23 41 65 64 65 12 0 32
-7 44 -16z"/>
</g>
</svg>
